<svg width="1312" height="1020" viewBox="0 0 1312 1020" fill="none" xmlns="http://www.w3.org/2000/svg">
<path d="M1115.94 776.215C1108.31 873.26 1023.45 945.744 926.406 938.111C829.361 930.479 756.877 845.621 764.51 748.576C772.142 651.53 857 579.047 954.045 586.679C1051.09 594.312 1123.57 679.17 1115.94 776.215Z" fill="url(#paint0_linear_112_2096)"/>
<path d="M1078.02 770.979C1078.8 840.065 1024.2 886.695 956.089 875.13C887.974 863.565 832.128 798.185 831.354 729.099C830.58 660.013 885.17 613.383 953.286 624.948C1021.4 636.513 1077.25 701.893 1078.02 770.979Z" fill="url(#paint1_radial_112_2096)"/>
<path d="M1068.11 817.067C1082.31 895.463 1032.86 937.708 957.645 911.426C882.434 885.144 809.95 800.285 795.749 721.89C781.547 643.495 831.005 601.249 906.217 627.532C981.428 653.814 1053.91 738.672 1068.11 817.067Z" fill="url(#paint2_radial_112_2096)"/>
<path d="M1067.76 817.132C1074.84 856.254 1066.03 886.263 1046.17 903.226C1026.31 920.189 995.297 924.201 957.764 911.085C920.233 897.97 883.36 870.229 854.093 835.966C824.826 801.702 803.191 760.946 796.104 721.826C789.017 682.704 797.828 652.695 817.688 635.731C837.547 618.768 868.565 614.757 906.098 627.873C943.629 640.988 980.502 668.728 1009.77 702.992C1039.04 737.255 1060.67 778.012 1067.76 817.132Z" stroke="url(#paint3_linear_112_2096)" stroke-opacity="0.2" stroke-width="0.722376"/>
<mask id="path-5-inside-1_112_2096" fill="white">
<path fill-rule="evenodd" clip-rule="evenodd" d="M1036.34 836.433C1036.91 828.075 1036.18 818.746 1034.02 808.564C1021.52 749.5 965.672 684.12 909.289 662.534C899.569 658.813 890.468 656.636 882.125 655.884C877.827 599.824 916.932 572.01 975.066 593.262C1038.17 616.332 1099.81 688.488 1112.73 754.425C1124.63 815.166 1091.04 849.442 1036.34 836.433Z"/>
</mask>
<path fill-rule="evenodd" clip-rule="evenodd" d="M1036.34 836.433C1036.91 828.075 1036.18 818.746 1034.02 808.564C1021.52 749.5 965.672 684.12 909.289 662.534C899.569 658.813 890.468 656.636 882.125 655.884C877.827 599.824 916.932 572.01 975.066 593.262C1038.17 616.332 1099.81 688.488 1112.73 754.425C1124.63 815.166 1091.04 849.442 1036.34 836.433Z" fill="url(#paint4_linear_112_2096)"/>
<path d="M1034.02 808.564L1033.32 808.714L1034.02 808.564ZM1036.34 836.433L1035.62 836.384L1035.58 836.994L1036.18 837.136L1036.34 836.433ZM909.289 662.534L909.547 661.859L909.289 662.534ZM882.125 655.884L881.405 655.94L881.452 656.549L882.061 656.604L882.125 655.884ZM975.066 593.262L974.818 593.94L975.066 593.262ZM1112.73 754.425L1112.02 754.564L1112.73 754.425ZM1033.32 808.714C1035.46 818.841 1036.18 828.103 1035.62 836.384L1037.07 836.481C1037.63 828.047 1036.9 818.65 1034.73 808.414L1033.32 808.714ZM909.03 663.209C937.081 673.948 965.044 695.604 987.56 721.964C1010.08 748.324 1027.09 779.329 1033.32 808.714L1034.73 808.414C1028.45 778.735 1011.29 747.518 988.659 721.025C966.03 694.533 937.879 672.706 909.547 661.859L909.03 663.209ZM882.061 656.604C890.327 657.349 899.363 659.507 909.03 663.209L909.547 661.859C899.776 658.119 890.61 655.924 882.19 655.165L882.061 656.604ZM882.846 655.829C880.71 627.969 889.363 607.292 905.592 596.177C921.837 585.051 945.879 583.361 974.818 593.94L975.314 592.583C946.119 581.911 921.542 583.502 904.776 594.985C887.993 606.479 879.243 627.74 881.405 655.94L882.846 655.829ZM974.818 593.94C1006.23 605.423 1037.31 629.142 1062.17 658.238C1087.02 687.333 1105.59 721.746 1112.02 754.564L1113.44 754.286C1106.95 721.166 1088.24 686.533 1063.27 657.299C1038.29 628.066 1007.01 604.172 975.314 592.583L974.818 593.94ZM1112.02 754.564C1117.94 784.801 1112.52 808.283 1098.99 822.589C1085.47 836.881 1063.7 842.195 1036.51 835.73L1036.18 837.136C1063.69 843.68 1086.06 838.361 1100.04 823.582C1114 808.817 1119.41 784.79 1113.44 754.286L1112.02 754.564Z" fill="url(#paint5_linear_112_2096)" fill-opacity="0.3" mask="url(#path-5-inside-1_112_2096)"/>
<g style="mix-blend-mode:lighten">
<ellipse cx="938.079" cy="670.599" rx="215.27" ry="209.678" transform="rotate(-130.503 938.079 670.599)" fill="url(#paint6_radial_112_2096)" fill-opacity="0.6"/>
</g>
<g style="mix-blend-mode:lighten">
<path d="M683.261 478.357C807.446 372.281 994.401 387.305 1100.84 511.912C1207.27 636.52 1192.89 823.526 1068.7 929.601C944.516 1035.68 757.56 1020.65 651.124 896.046C544.687 771.438 559.075 584.432 683.261 478.357Z" fill="url(#paint7_radial_112_2096)" fill-opacity="0.8"/>
</g>
<path d="M1034.02 808.564C1046.53 867.628 1010.96 898.01 954.575 876.424C898.192 854.838 842.347 789.459 829.84 730.394C817.334 671.33 852.903 640.948 909.286 662.534C965.669 684.12 1021.52 749.499 1034.02 808.564Z" fill="url(#paint8_radial_112_2096)"/>
<path d="M827.382 1107.56C730.641 1121.41 654.855 1096.08 610.44 1044.09C566.026 992.089 552.861 913.276 581.666 819.89C610.472 726.5 675.78 636.3 758.107 565.978C840.435 495.656 939.735 445.252 1036.48 431.4C1133.22 417.548 1209.01 442.872 1253.42 494.869C1297.84 546.866 1311 625.679 1282.2 719.066C1253.39 812.455 1188.08 902.655 1105.75 972.977C1023.43 1043.3 924.127 1093.7 827.382 1107.56Z" stroke="url(#paint9_linear_112_2096)" stroke-width="1.20396"/>
<path d="M816.4 1095.1C719.546 1108.97 643.574 1083.62 599.023 1031.46C554.472 979.307 541.316 900.308 570.155 806.813C598.994 713.317 664.363 623.045 746.744 552.677C829.124 482.31 928.506 431.857 1025.36 417.989C1122.21 404.121 1198.19 429.465 1242.74 481.622C1287.29 533.779 1300.44 612.778 1271.61 706.273C1242.77 799.769 1177.4 890.041 1095.02 960.409C1012.64 1030.78 913.254 1081.23 816.4 1095.1Z" stroke="url(#paint10_linear_112_2096)" stroke-width="0.240792"/>
<path d="M806.426 1153.7C693.147 1167.71 603.484 1135.92 550.015 1073.32C496.547 1010.73 479.165 917.195 510.71 807.499C542.255 697.798 616.746 592.769 711.706 511.657C806.666 430.544 922.049 373.389 1035.33 359.38C1148.61 345.372 1238.27 377.162 1291.74 439.759C1345.21 502.356 1362.59 595.886 1331.05 705.582C1299.5 815.284 1225.01 920.313 1130.05 1001.42C1035.09 1082.54 919.71 1139.69 806.426 1153.7Z" stroke="url(#paint11_linear_112_2096)" stroke-width="1.20396"/>
<path d="M806.426 1153.7C693.147 1167.71 603.484 1135.92 550.015 1073.32C496.547 1010.73 479.165 917.195 510.71 807.499C542.255 697.798 616.746 592.769 711.706 511.657C806.666 430.544 922.049 373.389 1035.33 359.38C1148.61 345.372 1238.27 377.162 1291.74 439.759C1345.21 502.356 1362.59 595.886 1331.05 705.582C1299.5 815.284 1225.01 920.313 1130.05 1001.42C1035.09 1082.54 919.71 1139.69 806.426 1153.7Z" stroke="url(#paint12_linear_112_2096)" stroke-opacity="0.2" stroke-width="1.20396"/>
<path d="M796.391 1141.92C678.699 1150.75 583.215 1112.19 523.929 1042.78C464.643 973.377 441.483 873.039 468.607 758.175C495.733 643.303 568.009 535.694 662.96 454.59C757.91 373.486 875.495 318.921 993.195 310.087C1110.89 301.253 1206.37 339.813 1265.66 409.221C1324.94 478.629 1348.1 578.967 1320.98 693.831C1293.85 808.703 1221.58 916.312 1126.63 997.416C1031.68 1078.52 914.091 1133.08 796.391 1141.92Z" stroke="url(#paint13_linear_112_2096)" stroke-width="1.20396"/>
<rect x="767.815" y="683.083" width="4.57311" height="4.57311" transform="rotate(-85.503 767.815 683.083)" fill="#00F0FF" fill-opacity="0.5"/>
<rect x="768.002" y="498.602" width="1.88565" height="1.88565" transform="rotate(-85.503 768.002 498.602)" fill="#00F0FF"/>
<rect width="2.47636" height="2.47636" transform="matrix(-0.078406 0.996921 0.996922 0.0784061 1139.8 463.825)" fill="#00F0FF"/>
<rect x="835.94" y="449.146" width="2.85182" height="2.85182" transform="rotate(-85.503 835.94 449.146)" fill="#00F0FF"/>
<rect x="844.124" y="490.704" width="1.69013" height="1.69013" transform="rotate(-85.503 844.124 490.704)" fill="#00F0FF"/>
<rect x="851.316" y="760.761" width="4.57311" height="4.57311" transform="rotate(-85.503 851.316 760.761)" fill="#00F0FF"/>
<rect x="718.654" y="842.043" width="4.57311" height="4.57311" transform="rotate(-85.503 718.654 842.043)" fill="#0500FF" fill-opacity="0.5"/>
<rect x="681.729" y="701.548" width="3.19614" height="3.19614" transform="rotate(-85.503 681.729 701.548)" fill="#3DFFFB"/>
<rect x="1056.6" y="905.508" width="5.94404" height="5.94404" transform="rotate(-85.503 1056.6 905.508)" fill="#0500FF" fill-opacity="0.5"/>
<rect width="5.96427" height="5.96427" transform="matrix(-0.0784061 0.996922 0.996922 0.0784061 1231.01 477.902)" fill="#0066FF" fill-opacity="0.5"/>
<rect x="1219.05" y="1024.6" width="6.34649" height="6.34649" transform="rotate(-85.503 1219.05 1024.6)" fill="#0500FF" fill-opacity="0.5"/>
<rect width="4.44389" height="4.44388" transform="matrix(0.078399 -0.996922 0.996921 0.0784131 1250.91 869.873)" fill="#0500FF" fill-opacity="0.5"/>
<rect x="1269.17" y="925.359" width="8.26454" height="8.26454" transform="rotate(-85.503 1269.17 925.359)" fill="#0500FF" fill-opacity="0.5"/>
<rect width="5.43657" height="5.43657" transform="matrix(-0.958331 -0.28566 0.285693 -0.958321 1119.6 660.558)" fill="#0066FF" fill-opacity="0.5"/>
<rect width="4.25311" height="4.25311" transform="matrix(-0.996921 -0.0784134 0.0783987 -0.996922 1015.65 588.282)" fill="#00D1FF"/>
<rect width="5.10915" height="5.10915" transform="matrix(0.958326 0.285676 0.285676 -0.958326 837.08 681.503)" fill="#001AFF" fill-opacity="0.5"/>
<rect x="865.229" y="556.383" width="5.43657" height="5.43657" transform="rotate(-163.401 865.229 556.383)" fill="#0066FF" fill-opacity="0.5"/>
<rect width="5.43657" height="5.43657" transform="matrix(-0.958331 -0.28566 0.285693 -0.958321 1230.97 614.968)" fill="#0066FF" fill-opacity="0.5"/>
<rect x="1032.67" y="469.686" width="3.93056" height="3.93056" transform="rotate(-175.503 1032.67 469.686)" fill="#0500FF" fill-opacity="0.5"/>
<rect width="3.80351" height="3.80351" transform="matrix(-0.958333 -0.285652 0.2857 -0.958319 1168.68 735.182)" fill="#0500FF" fill-opacity="0.5"/>
<rect x="1218.39" y="729.863" width="7.07358" height="7.07358" transform="rotate(-163.401 1218.39 729.863)" fill="#0500FF" fill-opacity="0.5"/>
<rect width="3.04573" height="3.04573" transform="matrix(0.0784165 -0.996921 0.996922 0.0783957 806.552 688.047)" fill="#00FFF0" fill-opacity="0.6"/>
<rect x="779.769" y="888.893" width="3.43135" height="3.43135" transform="rotate(-85.503 779.769 888.893)" fill="#00FFF0"/>
<rect width="3.78863" height="3.78863" transform="matrix(-0.0784062 0.996921 0.996922 0.078406 664.837 648.816)" fill="#00FFF0"/>
<rect x="740.59" y="595.159" width="4.03142" height="4.03142" transform="rotate(-85.503 740.59 595.159)" fill="#00FFF0"/>
<rect width="4.03142" height="4.03142" transform="matrix(0.0783984 -0.996922 0.996921 0.0784138 1035.41 752.972)" fill="#00FFF0" fill-opacity="0.5"/>
<rect x="930.567" y="801.144" width="2.20999" height="2.20999" transform="rotate(-85.503 930.567 801.144)" fill="#00FFF0" fill-opacity="0.5"/>
<rect x="858.14" y="937.438" width="4.03142" height="4.03142" transform="rotate(-120.813 858.14 937.438)" fill="#0500FF" fill-opacity="0.5"/>
<rect x="816.9" y="845.071" width="2.81467" height="2.81467" transform="rotate(-85.503 816.9 845.071)" fill="#00D1FF" fill-opacity="0.6"/>
<rect x="844.529" y="867.61" width="7.58361" height="7.58361" transform="rotate(-85.503 844.529 867.61)" fill="#6100FF" fill-opacity="0.5"/>
<g opacity="0.5">
<rect x="654.487" y="580.132" width="3.04573" height="3.04573" transform="rotate(-85.5031 654.487 580.132)" fill="#00FFF0" fill-opacity="0.6"/>
<rect width="3.43135" height="3.43135" transform="matrix(0.0784151 -0.996921 0.996922 0.0783971 627.705 780.978)" fill="#00FFF0"/>
<rect width="3.78863" height="3.78863" transform="matrix(-0.078406 0.996922 0.996921 0.0784062 512.773 540.905)" fill="#00FFF0"/>
<rect width="4.03142" height="4.03142" transform="matrix(0.0783982 -0.996922 0.996921 0.078414 588.525 487.244)" fill="#00FFF0"/>
<rect x="883.345" y="645.057" width="4.03142" height="4.03142" transform="rotate(-85.5031 883.345 645.057)" fill="#00FFF0" fill-opacity="0.5"/>
<rect x="778.503" y="693.229" width="2.20999" height="2.20999" transform="rotate(-85.5031 778.503 693.229)" fill="#00FFF0" fill-opacity="0.5"/>
<rect x="706.077" y="829.523" width="4.03142" height="4.03142" transform="rotate(-120.813 706.077 829.523)" fill="#0500FF" fill-opacity="0.5"/>
<rect x="664.837" y="737.157" width="2.81467" height="2.81467" transform="rotate(-85.5031 664.837 737.157)" fill="#00D1FF" fill-opacity="0.6"/>
<rect width="7.58361" height="7.58361" transform="matrix(0.0784018 -0.996922 0.996921 0.0784103 692.465 759.699)" fill="#6100FF" fill-opacity="0.5"/>
</g>
<path d="M1025.76 893.251L1020.37 865.186L1047.25 874.9L1052.64 902.965L1025.76 893.251Z" fill="url(#paint14_linear_112_2096)"/>
<path d="M1047.25 874.903L1020.37 865.189L998.642 916.416L1047.25 874.903Z" fill="url(#paint15_linear_112_2096)"/>
<path d="M1047.25 874.908L1052.67 902.964L998.642 916.421L1047.25 874.908Z" fill="url(#paint16_linear_112_2096)"/>
<path d="M827.47 653.452L824.067 635.743L841.026 641.873L844.429 659.581L827.47 653.452Z" fill="url(#paint17_linear_112_2096)"/>
<path d="M841.029 641.871L824.067 635.74L810.354 668.069L841.029 641.871Z" fill="url(#paint18_linear_112_2096)" fill-opacity="0.6"/>
<path d="M841.027 641.87L844.451 659.576L810.353 668.069L841.027 641.87Z" fill="url(#paint19_linear_112_2096)"/>
<path d="M712.749 512.626L706.933 483.387L735.035 493.338L740.851 522.576L712.749 512.626Z" fill="url(#paint20_linear_112_2096)"/>
<path d="M735.034 493.343L706.933 483.393L684.615 536.977L735.034 493.343Z" fill="url(#paint21_linear_112_2096)" fill-opacity="0.6"/>
<path d="M735.034 493.343L740.884 522.573L684.615 536.977L735.034 493.343Z" fill="url(#paint22_linear_112_2096)"/>
<path d="M856.947 807.876L855.236 821.303L865.219 832.694L877.39 831.433L872.213 816.227L856.947 807.876Z" fill="url(#paint23_linear_112_2096)" fill-opacity="0.7"/>
<path d="M822.445 858.057L859.188 848.16L875.787 845.88L822.445 858.057Z" fill="url(#paint24_linear_112_2096)" fill-opacity="0.8"/>
<path d="M822.444 858.059L840.193 826.4L842.705 807.919L822.444 858.059Z" fill="url(#paint25_linear_112_2096)"/>
<path d="M842.703 807.924L840.196 826.411L855.236 821.304L856.948 807.874L842.703 807.924Z" fill="url(#paint26_linear_112_2096)" fill-opacity="0.6"/>
<path d="M859.185 848.157L840.197 826.407L855.238 821.299L865.219 832.689L859.185 848.157Z" fill="url(#paint27_linear_112_2096)" fill-opacity="0.6"/>
<path d="M859.183 848.163L875.785 845.879L877.391 831.43L865.218 832.692L859.183 848.163Z" fill="url(#paint28_linear_112_2096)" fill-opacity="0.8"/>
<path d="M822.445 858.057L867.3 821.378L875.787 845.88L822.445 858.057Z" fill="url(#paint29_linear_112_2096)"/>
<path d="M822.444 858.057L867.297 821.377L842.705 807.917L822.444 858.057Z" fill="url(#paint30_linear_112_2096)"/>
<path d="M875.785 845.881L867.3 821.377L872.213 816.223L877.39 831.437L875.785 845.881Z" fill="url(#paint31_linear_112_2096)" fill-opacity="0.6"/>
<path d="M842.698 807.924L867.296 821.379L872.214 816.226L856.942 807.874L842.698 807.924Z" fill="url(#paint32_linear_112_2096)" fill-opacity="0.6"/>
<path d="M822.033 412.616L849.426 461.842L806.395 453.549L822.033 412.616Z" fill="url(#paint33_linear_112_2096)"/>
<path d="M822.036 412.617L849.429 461.843L929.375 385.12L822.036 412.617Z" fill="url(#paint34_linear_112_2096)"/>
<path d="M755.808 420.035L806.417 453.546L822.035 412.618L755.808 420.035Z" fill="url(#paint35_linear_112_2096)"/>
<path d="M808.212 514.211L806.416 453.544L755.808 420.039L727.822 436.29L736.007 492.725L779.65 529.427L808.212 514.211Z" fill="url(#paint36_linear_112_2096)" fill-opacity="0.5"/>
<path d="M784.908 497.746L833.232 512.432L849.429 461.842L822.036 412.617L770.507 399.715L757.515 448.521L784.908 497.746Z" fill="url(#paint37_radial_112_2096)" fill-opacity="0.5"/>
<path d="M757.517 448.52L784.909 497.745L736.001 492.723L757.517 448.52Z" fill="url(#paint38_linear_112_2096)"/>
<path d="M757.516 448.521L784.909 497.747L929.374 385.117L757.516 448.521Z" fill="url(#paint39_linear_112_2096)" fill-opacity="0.9"/>
<path d="M779.653 529.428L784.909 497.746L736.001 492.724L779.653 529.428Z" fill="url(#paint40_linear_112_2096)" fill-opacity="0.5"/>
<path d="M727.822 436.286L757.515 448.52L736.003 492.729L727.822 436.286Z" fill="url(#paint41_linear_112_2096)" fill-opacity="0.5"/>
<path d="M779.653 529.43L784.909 497.749L833.232 512.435L779.653 529.43Z" fill="url(#paint42_linear_112_2096)"/>
<path d="M727.823 436.286L757.517 448.52L770.508 399.714L727.823 436.286Z" fill="url(#paint43_linear_112_2096)"/>
<path d="M727.823 436.286L757.517 448.52L770.508 399.714L727.823 436.286Z" fill="url(#paint44_linear_112_2096)" fill-opacity="0.6"/>
<path d="M929.377 385.117L784.909 497.748L833.232 512.434L929.377 385.117Z" fill="url(#paint45_linear_112_2096)" fill-opacity="0.9"/>
<path d="M929.376 385.116L757.512 448.515L770.504 399.709L929.376 385.116Z" fill="url(#paint46_linear_112_2096)" fill-opacity="0.9"/>
<defs>
<linearGradient id="paint0_linear_112_2096" x1="1016.58" y1="604.424" x2="891.209" y2="804.265" gradientUnits="userSpaceOnUse">
<stop stop-color="white"/>
<stop offset="0.165772" stop-color="#71FFF6"/>
<stop offset="0.552083" stop-color="#4F75FF"/>
<stop offset="1" stop-color="#5E64FF" stop-opacity="0"/>
</linearGradient>
<radialGradient id="paint1_radial_112_2096" cx="0" cy="0" r="1" gradientUnits="userSpaceOnUse" gradientTransform="translate(942.266 800.086) rotate(-77.9792) scale(157.011 187.398)">
<stop offset="0.40625" stop-color="#3330B1" stop-opacity="0.1"/>
<stop offset="0.678936" stop-color="#58FFFF" stop-opacity="0.5"/>
<stop offset="1" stop-color="white"/>
</radialGradient>
<radialGradient id="paint2_radial_112_2096" cx="0" cy="0" r="1" gradientUnits="userSpaceOnUse" gradientTransform="translate(930.724 647.165) rotate(123.323) scale(199.8 342.233)">
<stop stop-color="white"/>
<stop offset="0.298196" stop-color="#5EF5FF"/>
<stop offset="0.538073" stop-color="#3432BD"/>
<stop offset="0.914407" stop-color="#171940"/>
</radialGradient>
<linearGradient id="paint3_linear_112_2096" x1="924.607" y1="634.152" x2="875.854" y2="847.915" gradientUnits="userSpaceOnUse">
<stop stop-color="white"/>
<stop offset="1" stop-color="white" stop-opacity="0"/>
</linearGradient>
<linearGradient id="paint4_linear_112_2096" x1="1011.85" y1="627.031" x2="994.689" y2="776.916" gradientUnits="userSpaceOnUse">
<stop stop-color="white"/>
<stop offset="0.502014" stop-color="#4FFFF4" stop-opacity="0.1"/>
<stop offset="1" stop-color="#5ECFFF" stop-opacity="0.6"/>
</linearGradient>
<linearGradient id="paint5_linear_112_2096" x1="997.549" y1="561.682" x2="1022.92" y2="898.348" gradientUnits="userSpaceOnUse">
<stop stop-color="white"/>
<stop offset="1" stop-color="white" stop-opacity="0"/>
</linearGradient>
<radialGradient id="paint6_radial_112_2096" cx="0" cy="0" r="1" gradientUnits="userSpaceOnUse" gradientTransform="translate(938.079 685.461) rotate(80.7781) scale(166.684 171.23)">
<stop offset="0.0729167" stop-color="white"/>
<stop offset="0.507801" stop-color="#C173FF" stop-opacity="0.9"/>
<stop offset="1" stop-color="#0E26FF" stop-opacity="0"/>
</radialGradient>
<radialGradient id="paint7_radial_112_2096" cx="0" cy="0" r="1" gradientUnits="userSpaceOnUse" gradientTransform="translate(891.919 690.366) rotate(-49.5194) scale(234.948 236.158)">
<stop offset="0.0729167" stop-color="#8785FF"/>
<stop offset="1" stop-color="#3E0EFF" stop-opacity="0"/>
</radialGradient>
<radialGradient id="paint8_radial_112_2096" cx="0" cy="0" r="1" gradientUnits="userSpaceOnUse" gradientTransform="translate(837.489 878.835) rotate(-55.6889) scale(204.144 359.183)">
<stop stop-color="#3330B1"/>
<stop offset="1" stop-color="#0A0926"/>
</radialGradient>
<linearGradient id="paint9_linear_112_2096" x1="673.979" y1="467.486" x2="954.382" y2="795.76" gradientUnits="userSpaceOnUse">
<stop stop-color="#8FBCFF" stop-opacity="0.6"/>
<stop offset="1" stop-color="#8FBCFF" stop-opacity="0"/>
</linearGradient>
<linearGradient id="paint10_linear_112_2096" x1="731.525" y1="534.861" x2="1095.1" y2="960.501" gradientUnits="userSpaceOnUse">
<stop stop-color="#8FBCFF" stop-opacity="0.6"/>
<stop offset="1" stop-color="#8FBCFF" stop-opacity="0"/>
</linearGradient>
<linearGradient id="paint11_linear_112_2096" x1="598.063" y1="378.612" x2="982.42" y2="828.588" gradientUnits="userSpaceOnUse">
<stop stop-color="white" stop-opacity="0.6"/>
<stop offset="0.34375" stop-color="#8FBCFF" stop-opacity="0.6"/>
<stop offset="1" stop-color="#8FBCFF" stop-opacity="0"/>
</linearGradient>
<linearGradient id="paint12_linear_112_2096" x1="949.253" y1="382.784" x2="985.654" y2="540.453" gradientUnits="userSpaceOnUse">
<stop stop-color="#FF48D7"/>
<stop offset="0.234164" stop-color="white" stop-opacity="0.765836"/>
<stop offset="1" stop-color="#FF48D7" stop-opacity="0"/>
</linearGradient>
<linearGradient id="paint13_linear_112_2096" x1="642.387" y1="430.504" x2="920.655" y2="756.279" gradientUnits="userSpaceOnUse">
<stop stop-color="#8FBCFF" stop-opacity="0.6"/>
<stop offset="1" stop-color="#8FBCFF" stop-opacity="0"/>
</linearGradient>
<linearGradient id="paint14_linear_112_2096" x1="1018.99" y1="882.698" x2="1054.02" y2="885.453" gradientUnits="userSpaceOnUse">
<stop stop-color="#6083FF"/>
<stop offset="1" stop-color="#0C1E5E" stop-opacity="0"/>
</linearGradient>
<linearGradient id="paint15_linear_112_2096" x1="1027.28" y1="861.532" x2="998.495" y2="916.244" gradientUnits="userSpaceOnUse">
<stop offset="0.170794" stop-color="#3D3BA9"/>
<stop offset="0.537799" stop-color="#FF7BE2" stop-opacity="0.8"/>
<stop offset="0.791667" stop-color="white"/>
</linearGradient>
<linearGradient id="paint16_linear_112_2096" x1="998.833" y1="916.644" x2="1050.39" y2="899.815" gradientUnits="userSpaceOnUse">
<stop stop-color="#3DDCFF"/>
<stop offset="0.427083" stop-color="#9D50FF" stop-opacity="0"/>
<stop offset="0.977116" stop-color="#3DDCFF"/>
</linearGradient>
<linearGradient id="paint17_linear_112_2096" x1="823.198" y1="646.793" x2="845.298" y2="648.531" gradientUnits="userSpaceOnUse">
<stop stop-color="#6083FF"/>
<stop offset="1" stop-color="#0C1E5E" stop-opacity="0"/>
</linearGradient>
<linearGradient id="paint18_linear_112_2096" x1="828.429" y1="633.432" x2="810.262" y2="667.96" gradientUnits="userSpaceOnUse">
<stop offset="0.170794" stop-color="#3D3BA9"/>
<stop offset="0.537799" stop-color="#FF7BE2" stop-opacity="0.8"/>
<stop offset="0.791667" stop-color="white"/>
</linearGradient>
<linearGradient id="paint19_linear_112_2096" x1="810.473" y1="668.21" x2="843.014" y2="657.589" gradientUnits="userSpaceOnUse">
<stop stop-color="#3DDCFF"/>
<stop offset="0.427083" stop-color="#9D50FF" stop-opacity="0.5"/>
<stop offset="0.977116" stop-color="#3DDCFF"/>
</linearGradient>
<linearGradient id="paint20_linear_112_2096" x1="705.615" y1="501.664" x2="742.169" y2="504.299" gradientUnits="userSpaceOnUse">
<stop stop-color="#6083FF"/>
<stop offset="1" stop-color="#0C1E5E" stop-opacity="0"/>
</linearGradient>
<linearGradient id="paint21_linear_112_2096" x1="714.118" y1="479.53" x2="684.46" y2="536.798" gradientUnits="userSpaceOnUse">
<stop offset="0.170794" stop-color="#3D3BA9"/>
<stop offset="0.537799" stop-color="#FF7BE2" stop-opacity="0.8"/>
<stop offset="0.791667" stop-color="white"/>
</linearGradient>
<linearGradient id="paint22_linear_112_2096" x1="684.815" y1="537.209" x2="738.486" y2="519.303" gradientUnits="userSpaceOnUse">
<stop stop-color="#3DDCFF"/>
<stop offset="0.427083" stop-color="#9D50FF" stop-opacity="0.5"/>
<stop offset="0.977116" stop-color="#3DDCFF"/>
</linearGradient>
<linearGradient id="paint23_linear_112_2096" x1="850.502" y1="816.95" x2="874.175" y2="818.389" gradientUnits="userSpaceOnUse">
<stop stop-color="#6587FF"/>
<stop offset="1" stop-color="#D8E0FF" stop-opacity="0.9"/>
</linearGradient>
<linearGradient id="paint24_linear_112_2096" x1="855.82" y1="829.548" x2="873.491" y2="860.8" gradientUnits="userSpaceOnUse">
<stop offset="0.135417" stop-color="white"/>
<stop offset="0.28125" stop-color="#89F8FF" stop-opacity="0.934673"/>
<stop offset="0.645833" stop-color="#71F6FF" stop-opacity="0.921354"/>
<stop offset="1" stop-color="#4A72FF" stop-opacity="0.9"/>
</linearGradient>
<linearGradient id="paint25_linear_112_2096" x1="822.58" y1="822.503" x2="838.62" y2="849.466" gradientUnits="userSpaceOnUse">
<stop offset="0.170794" stop-color="#3D3BA9"/>
<stop offset="0.537799" stop-color="#FF7BE2" stop-opacity="0.8"/>
<stop offset="0.791667" stop-color="white"/>
</linearGradient>
<linearGradient id="paint26_linear_112_2096" x1="849.234" y1="802.345" x2="857.366" y2="820.813" gradientUnits="userSpaceOnUse">
<stop offset="0.135417" stop-color="white"/>
<stop offset="0.28125" stop-color="#89F8FF" stop-opacity="0.934673"/>
<stop offset="0.645833" stop-color="#71F6FF" stop-opacity="0.921354"/>
<stop offset="1" stop-color="#4A72FF" stop-opacity="0.9"/>
</linearGradient>
<linearGradient id="paint27_linear_112_2096" x1="846.112" y1="821.355" x2="839.2" y2="841.114" gradientUnits="userSpaceOnUse">
<stop offset="0.135417" stop-color="white"/>
<stop offset="0.28125" stop-color="#89F8FF" stop-opacity="0.934673"/>
<stop offset="0.645833" stop-color="#71F6FF" stop-opacity="0.921354"/>
<stop offset="1" stop-color="#4A72FF" stop-opacity="0.9"/>
</linearGradient>
<linearGradient id="paint28_linear_112_2096" x1="874.893" y1="831.794" x2="882.205" y2="845.857" gradientUnits="userSpaceOnUse">
<stop offset="0.135417" stop-color="white"/>
<stop offset="0.28125" stop-color="#89F8FF" stop-opacity="0.934673"/>
<stop offset="0.645833" stop-color="#71F6FF" stop-opacity="0.921354"/>
<stop offset="1" stop-color="#4A72FF" stop-opacity="0.9"/>
</linearGradient>
<linearGradient id="paint29_linear_112_2096" x1="839.182" y1="877.301" x2="848.233" y2="828.103" gradientUnits="userSpaceOnUse">
<stop stop-color="#3DDCFF"/>
<stop offset="0.427083" stop-color="#9D50FF" stop-opacity="0"/>
<stop offset="0.977116" stop-color="#3DDCFF"/>
</linearGradient>
<linearGradient id="paint30_linear_112_2096" x1="861.162" y1="802.336" x2="857.631" y2="872.372" gradientUnits="userSpaceOnUse">
<stop offset="0.170794" stop-color="#3D3BA9"/>
<stop offset="0.537799" stop-color="#FF7BE2" stop-opacity="0.8"/>
<stop offset="0.791667" stop-color="white"/>
</linearGradient>
<linearGradient id="paint31_linear_112_2096" x1="874.069" y1="815.595" x2="878.818" y2="844.933" gradientUnits="userSpaceOnUse">
<stop offset="0.135417" stop-color="white"/>
<stop offset="0.28125" stop-color="#89F8FF" stop-opacity="0.934673"/>
<stop offset="0.645833" stop-color="#71F6FF" stop-opacity="0.921354"/>
<stop offset="1" stop-color="#4A72FF" stop-opacity="0.9"/>
</linearGradient>
<linearGradient id="paint32_linear_112_2096" x1="851.209" y1="817.888" x2="866.614" y2="804.729" gradientUnits="userSpaceOnUse">
<stop stop-color="#3E5ABE"/>
<stop offset="1" stop-color="#3E5ABE" stop-opacity="0"/>
</linearGradient>
<linearGradient id="paint33_linear_112_2096" x1="782.842" y1="498.894" x2="742.723" y2="441.8" gradientUnits="userSpaceOnUse">
<stop stop-color="white"/>
<stop offset="0.227296" stop-color="#47FFDE" stop-opacity="0.8"/>
<stop offset="1" stop-color="#6D61FF" stop-opacity="0.5"/>
</linearGradient>
<linearGradient id="paint34_linear_112_2096" x1="782.844" y1="498.898" x2="742.724" y2="441.803" gradientUnits="userSpaceOnUse">
<stop stop-color="white"/>
<stop offset="0.227296" stop-color="#47FFDE" stop-opacity="0.8"/>
<stop offset="1" stop-color="#6D61FF" stop-opacity="0.5"/>
</linearGradient>
<linearGradient id="paint35_linear_112_2096" x1="767.683" y1="401.287" x2="787.676" y2="441.818" gradientUnits="userSpaceOnUse">
<stop stop-color="white"/>
<stop offset="0.227296" stop-color="#47FFDE" stop-opacity="0.8"/>
<stop offset="1" stop-color="#6D61FF" stop-opacity="0.5"/>
</linearGradient>
<linearGradient id="paint36_linear_112_2096" x1="823.34" y1="444.126" x2="719.083" y2="502.143" gradientUnits="userSpaceOnUse">
<stop stop-color="#6D61FF"/>
<stop offset="1" stop-color="#47FFDE"/>
</linearGradient>
<radialGradient id="paint37_radial_112_2096" cx="0" cy="0" r="1" gradientUnits="userSpaceOnUse" gradientTransform="translate(803.472 455.182) rotate(-119.095) scale(95.5037 54.6676)">
<stop stop-color="#6D61FF"/>
<stop offset="1" stop-color="#47FFDE"/>
</radialGradient>
<linearGradient id="paint38_linear_112_2096" x1="782.843" y1="498.895" x2="742.724" y2="441.801" gradientUnits="userSpaceOnUse">
<stop stop-color="white"/>
<stop offset="0.227296" stop-color="#47FFDE" stop-opacity="0.8"/>
<stop offset="1" stop-color="#6D61FF" stop-opacity="0.5"/>
</linearGradient>
<linearGradient id="paint39_linear_112_2096" x1="767.485" y1="496.053" x2="850.327" y2="538.738" gradientUnits="userSpaceOnUse">
<stop offset="0.0729167" stop-color="#4B86FA" stop-opacity="0.8"/>
<stop offset="0.791667" stop-color="#FCA6EF" stop-opacity="0.8"/>
<stop offset="1" stop-color="white"/>
</linearGradient>
<linearGradient id="paint40_linear_112_2096" x1="784.169" y1="496.417" x2="732.875" y2="494.139" gradientUnits="userSpaceOnUse">
<stop stop-color="#7BFFE7" stop-opacity="0.8"/>
<stop offset="1" stop-color="#322994" stop-opacity="0.5"/>
</linearGradient>
<linearGradient id="paint41_linear_112_2096" x1="758.255" y1="449.849" x2="724.217" y2="443.956" gradientUnits="userSpaceOnUse">
<stop stop-color="#7BFFE7" stop-opacity="0.9"/>
<stop offset="1" stop-color="#322994" stop-opacity="0.5"/>
</linearGradient>
<linearGradient id="paint42_linear_112_2096" x1="830.409" y1="514.006" x2="768.727" y2="491.379" gradientUnits="userSpaceOnUse">
<stop stop-color="white"/>
<stop offset="0.586705" stop-color="#47FFDE" stop-opacity="0.9"/>
<stop offset="1" stop-color="#6D61FF" stop-opacity="0.5"/>
</linearGradient>
<linearGradient id="paint43_linear_112_2096" x1="729.761" y1="436.4" x2="760.928" y2="454.395" gradientUnits="userSpaceOnUse">
<stop stop-color="#0A3892"/>
<stop offset="0.536458" stop-color="#29B2ED" stop-opacity="0.8"/>
<stop offset="0.967948" stop-color="white"/>
</linearGradient>
<linearGradient id="paint44_linear_112_2096" x1="750.655" y1="454.452" x2="748.762" y2="421.806" gradientUnits="userSpaceOnUse">
<stop stop-color="#FF439D"/>
<stop offset="1" stop-color="#FF43D6" stop-opacity="0"/>
</linearGradient>
<linearGradient id="paint45_linear_112_2096" x1="910.434" y1="436.726" x2="871.988" y2="399.798" gradientUnits="userSpaceOnUse">
<stop offset="0.0729167" stop-color="#4B86FA" stop-opacity="0.8"/>
<stop offset="0.791667" stop-color="#FCA6EF" stop-opacity="0.8"/>
<stop offset="1" stop-color="white"/>
</linearGradient>
<linearGradient id="paint46_linear_112_2096" x1="618.226" y1="424.365" x2="690.378" y2="272.023" gradientUnits="userSpaceOnUse">
<stop offset="0.0729167" stop-color="#4B86FA" stop-opacity="0.8"/>
<stop offset="0.791667" stop-color="#FCA6EF" stop-opacity="0.8"/>
<stop offset="1" stop-color="white"/>
</linearGradient>
</defs>
</svg>
