<svg width="1189" height="1020" viewBox="0 0 1189 1020" fill="none" xmlns="http://www.w3.org/2000/svg">
<g filter="url(#filter0_f_232_460)">
<circle cx="601.5" cy="585.5" r="429.5" fill="url(#paint0_radial_232_460)" fill-opacity="0.6"/>
</g>
<g style="mix-blend-mode:overlay">
<path d="M521.07 497.16C312.617 521.539 158 611.015 158 717.665C158 843.07 371.781 944.731 635.493 944.731C899.204 944.731 1112.99 843.07 1112.99 717.665C1112.99 607.564 948.2 515.766 729.514 495" stroke="url(#paint1_angular_232_460)" stroke-width="1.70856" stroke-linecap="round"/>
</g>
<g style="mix-blend-mode:overlay">
<path d="M521.07 498.76C312.617 523.138 158 612.615 158 719.264C158 844.669 371.781 946.33 635.493 946.33C899.204 946.33 1112.99 844.669 1112.99 719.264C1112.99 609.164 948.2 517.366 729.514 496.599" stroke="url(#paint2_angular_232_460)" stroke-width="1.70856" stroke-linecap="round"/>
</g>
<g style="mix-blend-mode:overlay">
<path d="M745.746 502.28C956.303 525.946 1112.99 615.903 1112.99 723.263C1112.99 848.668 899.204 950.328 635.493 950.328C371.781 950.328 158 848.668 158 723.263C158 618.369 307.568 530.088 510.818 504.015" stroke="url(#paint3_angular_232_460)" stroke-width="1.70856" stroke-linecap="round"/>
</g>
<g style="mix-blend-mode:overlay">
<path d="M494.587 512.643C299.655 541.231 158 627.579 158 729.66C158 855.065 371.781 956.726 635.493 956.726C899.204 956.726 1112.99 855.065 1112.99 729.66C1112.99 624.27 961.999 535.65 757.279 510.046" stroke="url(#paint4_angular_232_460)" stroke-width="1.70856" stroke-linecap="round"/>
</g>
<g style="mix-blend-mode:overlay">
<path d="M774.791 521.204C970.552 549.553 1112.99 636.094 1112.99 738.456C1112.99 863.861 899.204 965.522 635.493 965.522C371.781 965.522 158 863.861 158 738.456C158 639.457 291.228 555.256 477.074 524.185" stroke="url(#paint5_angular_232_460)" stroke-width="1.70856" stroke-linecap="round"/>
</g>
<rect x="276" y="198" width="630" height="630" rx="315" fill="url(#paint6_linear_232_460)"/>
<mask id="mask0_232_460" style="mask-type:alpha" maskUnits="userSpaceOnUse" x="773" y="760" width="252" height="289">
<rect x="773.781" y="760.635" width="251.044" height="287.992" fill="url(#paint7_linear_232_460)"/>
</mask>
<g mask="url(#mask0_232_460)">
<g opacity="0.8">
<path d="M906.001 777.764L968.029 811.391L997.682 860.607L953.114 1022.21L906 994.957L906.001 777.764Z" fill="url(#paint8_linear_232_460)"/>
<path opacity="0.8" d="M906 777.764L906 889.371L960.783 857.104L968.028 811.391L906 777.764Z" fill="url(#paint9_linear_232_460)" fill-opacity="0.7"/>
<g opacity="0.8">
<path d="M905.999 777.766L843.961 811.398L814.318 860.608L858.886 1022.21L906 994.957L905.999 777.766Z" fill="url(#paint10_linear_232_460)" fill-opacity="0.7"/>
<path d="M905.999 777.766L843.961 811.398L814.318 860.608L858.886 1022.21L906 994.957L905.999 777.766Z" fill="url(#paint11_linear_232_460)" fill-opacity="0.5"/>
</g>
<path d="M953.116 1022.21L906 994.958L906 1049.46L953.116 1022.21Z" fill="url(#paint12_linear_232_460)"/>
<path d="M906.001 863.579L874.804 845.536L906.001 827.494L937.198 845.536L906.001 863.579Z" fill="url(#paint13_linear_232_460)" fill-opacity="0.5"/>
<path d="M858.884 1022.21L906 1049.46L906 994.958L858.884 1022.21Z" fill="url(#paint14_linear_232_460)" fill-opacity="0.8"/>
<path d="M906.001 1037.97L880.73 1023.36L906.001 1008.74L931.272 1023.36L906.001 1037.97Z" fill="url(#paint15_linear_232_460)" fill-opacity="0.6"/>
<path opacity="0.8" d="M906 777.764L905.999 889.371L851.217 857.104L843.972 811.391L906 777.764Z" fill="url(#paint16_linear_232_460)"/>
<path d="M814.319 860.608L843.972 811.391L851.217 857.104L814.319 860.608Z" fill="url(#paint17_linear_232_460)" fill-opacity="0.7"/>
<path d="M906.001 906.097L855.228 876.733L906.001 847.369L956.774 876.733L906.001 906.097Z" fill="url(#paint18_linear_232_460)" fill-opacity="0.7"/>
<path d="M906.001 906.097L855.228 876.733L906.001 847.369L956.774 876.733L906.001 906.097Z" fill="url(#paint19_linear_232_460)" fill-opacity="0.7"/>
<path d="M906.002 847.37L855.229 876.732L874.805 845.535L906.002 827.493L906.002 847.37Z" fill="url(#paint20_linear_232_460)" fill-opacity="0.9"/>
<path d="M906.001 847.362L956.774 876.725L931.271 1023.36L906.001 1008.74L906.001 847.362Z" fill="url(#paint21_linear_232_460)" fill-opacity="0.6"/>
<path d="M906 847.362L855.228 876.725L880.731 1023.36L906 1008.74L906 847.362Z" fill="url(#paint22_linear_232_460)" fill-opacity="0.9"/>
<path d="M906.002 847.37L956.775 876.732L937.199 845.535L906.002 827.493L906.002 847.37Z" fill="url(#paint23_linear_232_460)" fill-opacity="0.9"/>
<path d="M997.681 860.608L968.028 811.391L960.784 857.104L997.681 860.608Z" fill="url(#paint24_linear_232_460)" fill-opacity="0.7"/>
</g>
</g>
<g filter="url(#filter1_f_232_460)">
<ellipse cx="906" cy="805.333" rx="173" ry="75.5522" fill="url(#paint25_radial_232_460)" fill-opacity="0.6"/>
</g>
<g filter="url(#filter2_f_232_460)">
<ellipse cx="906" cy="805.333" rx="122.884" ry="53.6655" fill="url(#paint26_radial_232_460)" fill-opacity="0.6"/>
</g>
<path d="M905.999 743.098L996.043 795.173L905.999 847.249L815.954 795.173L905.999 743.098Z" fill="url(#paint27_linear_232_460)" fill-opacity="0.5"/>
<path d="M905.999 812.625L843.971 778.999L814.318 729.782L858.886 568.183L906 595.432L905.999 812.625Z" fill="url(#paint28_linear_232_460)"/>
<path opacity="0.8" d="M906 812.625L905.999 701.018L851.217 733.285L843.972 778.998L906 812.625Z" fill="url(#paint29_linear_232_460)" fill-opacity="0.7"/>
<g opacity="0.8">
<path d="M906 812.624L968.039 778.991L997.681 729.782L953.114 568.183L906 595.432L906 812.624Z" fill="url(#paint30_linear_232_460)" fill-opacity="0.7"/>
<path d="M906 812.624L968.039 778.991L997.681 729.782L953.114 568.183L906 595.432L906 812.624Z" fill="url(#paint31_linear_232_460)" fill-opacity="0.5"/>
</g>
<path d="M858.884 568.183L906 595.432L906 540.934L858.884 568.183Z" fill="url(#paint32_linear_232_460)"/>
<path d="M905.999 726.81L937.196 744.853L905.999 762.895L874.802 744.853L905.999 726.81Z" fill="url(#paint33_linear_232_460)" fill-opacity="0.5"/>
<path d="M953.116 568.183L906 540.934L906 595.432L953.116 568.183Z" fill="url(#paint34_linear_232_460)" fill-opacity="0.8"/>
<path d="M905.999 552.418L931.27 567.034L905.999 581.649L880.728 567.034L905.999 552.418Z" fill="url(#paint35_linear_232_460)" fill-opacity="0.6"/>
<path opacity="0.8" d="M906 812.625L906.001 701.018L960.784 733.284L968.029 778.998L906 812.625Z" fill="url(#paint36_linear_232_460)"/>
<path d="M997.681 729.781L968.028 778.998L960.784 733.285L997.681 729.781Z" fill="url(#paint37_linear_232_460)" fill-opacity="0.7"/>
<path d="M905.999 684.292L956.772 713.656L905.999 743.02L855.226 713.656L905.999 684.292Z" fill="url(#paint38_linear_232_460)" fill-opacity="0.7"/>
<path d="M905.999 684.292L956.772 713.656L905.999 743.02L855.226 713.656L905.999 684.292Z" fill="url(#paint39_linear_232_460)" fill-opacity="0.7"/>
<path d="M905.998 743.019L956.771 713.656L937.195 744.854L905.998 762.896V743.019Z" fill="url(#paint40_linear_232_460)" fill-opacity="0.9"/>
<path d="M905.999 743.027L855.226 713.664L880.729 567.033L905.999 581.649L905.999 743.027Z" fill="url(#paint41_linear_232_460)" fill-opacity="0.6"/>
<path d="M906 743.027L956.772 713.664L931.269 567.033L906 581.649L906 743.027Z" fill="url(#paint42_linear_232_460)" fill-opacity="0.9"/>
<path d="M905.998 743.019L855.225 713.656L874.801 744.854L905.998 762.896V743.019Z" fill="url(#paint43_linear_232_460)" fill-opacity="0.9"/>
<path d="M814.319 729.781L843.972 778.998L851.217 733.285L814.319 729.781Z" fill="url(#paint44_linear_232_460)" fill-opacity="0.7"/>
<defs>
<filter id="filter0_f_232_460" x="0.199997" y="-15.8" width="1202.6" height="1202.6" filterUnits="userSpaceOnUse" color-interpolation-filters="sRGB">
<feFlood flood-opacity="0" result="BackgroundImageFix"/>
<feBlend mode="normal" in="SourceGraphic" in2="BackgroundImageFix" result="shape"/>
<feGaussianBlur stdDeviation="85.9" result="effect1_foregroundBlur_232_460"/>
</filter>
<filter id="filter1_f_232_460" x="725.592" y="722.373" width="360.816" height="165.921" filterUnits="userSpaceOnUse" color-interpolation-filters="sRGB">
<feFlood flood-opacity="0" result="BackgroundImageFix"/>
<feBlend mode="normal" in="SourceGraphic" in2="BackgroundImageFix" result="shape"/>
<feGaussianBlur stdDeviation="3.70408" result="effect1_foregroundBlur_232_460"/>
</filter>
<filter id="filter2_f_232_460" x="775.709" y="744.259" width="260.583" height="122.147" filterUnits="userSpaceOnUse" color-interpolation-filters="sRGB">
<feFlood flood-opacity="0" result="BackgroundImageFix"/>
<feBlend mode="normal" in="SourceGraphic" in2="BackgroundImageFix" result="shape"/>
<feGaussianBlur stdDeviation="3.70408" result="effect1_foregroundBlur_232_460"/>
</filter>
<radialGradient id="paint0_radial_232_460" cx="0" cy="0" r="1" gradientUnits="userSpaceOnUse" gradientTransform="translate(555.973 572.615) rotate(89.3883) scale(482.785)">
<stop stop-color="#2954A3"/>
<stop offset="1" stop-color="#101241"/>
</radialGradient>
<radialGradient id="paint1_angular_232_460" cx="0" cy="0" r="1" gradientUnits="userSpaceOnUse" gradientTransform="translate(642.381 739.459) scale(508.767 237.904)">
<stop offset="0.458333" stop-color="white"/>
<stop offset="0.717799" stop-color="white" stop-opacity="0"/>
<stop offset="0.782437" stop-color="white" stop-opacity="0"/>
<stop offset="1" stop-color="white" stop-opacity="0.4"/>
</radialGradient>
<radialGradient id="paint2_angular_232_460" cx="0" cy="0" r="1" gradientUnits="userSpaceOnUse" gradientTransform="translate(642.381 741.059) scale(508.767 237.905)">
<stop offset="0.458333" stop-color="white"/>
<stop offset="0.717799" stop-color="white" stop-opacity="0"/>
<stop offset="0.782437" stop-color="white" stop-opacity="0"/>
<stop offset="1" stop-color="white" stop-opacity="0.4"/>
</radialGradient>
<radialGradient id="paint3_angular_232_460" cx="0" cy="0" r="1" gradientUnits="userSpaceOnUse" gradientTransform="translate(642.381 745.825) scale(508.767 237.015)">
<stop offset="0.458333" stop-color="white"/>
<stop offset="0.717799" stop-color="white" stop-opacity="0"/>
<stop offset="0.782437" stop-color="white" stop-opacity="0"/>
<stop offset="1" stop-color="white" stop-opacity="0.4"/>
</radialGradient>
<radialGradient id="paint4_angular_232_460" cx="0" cy="0" r="1" gradientUnits="userSpaceOnUse" gradientTransform="translate(642.381 752.847) scale(508.767 236.29)">
<stop offset="0.458333" stop-color="white"/>
<stop offset="0.717799" stop-color="white" stop-opacity="0"/>
<stop offset="0.782437" stop-color="white" stop-opacity="0"/>
<stop offset="1" stop-color="white" stop-opacity="0.4"/>
</radialGradient>
<radialGradient id="paint5_angular_232_460" cx="0" cy="0" r="1" gradientUnits="userSpaceOnUse" gradientTransform="translate(642.381 762.721) scale(508.767 235.041)">
<stop offset="0.458333" stop-color="white"/>
<stop offset="0.717799" stop-color="white" stop-opacity="0"/>
<stop offset="0.782437" stop-color="white" stop-opacity="0"/>
<stop offset="1" stop-color="white" stop-opacity="0.4"/>
</radialGradient>
<linearGradient id="paint6_linear_232_460" x1="402" y1="256" x2="800" y2="806" gradientUnits="userSpaceOnUse">
<stop stop-color="#C961DE"/>
<stop offset="1" stop-color="#2954A3"/>
</linearGradient>
<linearGradient id="paint7_linear_232_460" x1="899.303" y1="646.877" x2="899.303" y2="958.172" gradientUnits="userSpaceOnUse">
<stop/>
<stop offset="1" stop-opacity="0"/>
</linearGradient>
<linearGradient id="paint8_linear_232_460" x1="725.541" y1="1039.31" x2="712.318" y2="856.577" gradientUnits="userSpaceOnUse">
<stop stop-color="#3D79ED"/>
<stop offset="0.265625" stop-color="#3458C1" stop-opacity="0.7"/>
<stop offset="0.618879" stop-color="#3753B8" stop-opacity="0.7"/>
<stop offset="0.895833" stop-color="#5BB0FF" stop-opacity="0.9"/>
<stop offset="1" stop-color="#5BB0FF" stop-opacity="0.6"/>
</linearGradient>
<linearGradient id="paint9_linear_232_460" x1="913.336" y1="792.493" x2="945.246" y2="863.262" gradientUnits="userSpaceOnUse">
<stop offset="0.046875" stop-color="white"/>
<stop offset="0.427083" stop-color="#DFF4FF"/>
<stop offset="0.994792" stop-color="#0E42C8"/>
</linearGradient>
<linearGradient id="paint10_linear_232_460" x1="814.319" y1="771.031" x2="920.514" y2="852.055" gradientUnits="userSpaceOnUse">
<stop offset="0.280479" stop-color="white"/>
<stop offset="0.469567" stop-color="#FF79DA"/>
<stop offset="0.692708" stop-color="#3D3AE3" stop-opacity="0.9"/>
</linearGradient>
<linearGradient id="paint11_linear_232_460" x1="814.319" y1="782.358" x2="919.298" y2="883.112" gradientUnits="userSpaceOnUse">
<stop offset="0.161458" stop-color="white"/>
<stop offset="1" stop-color="white" stop-opacity="0"/>
</linearGradient>
<linearGradient id="paint12_linear_232_460" x1="905.884" y1="1048.55" x2="930.625" y2="1008.01" gradientUnits="userSpaceOnUse">
<stop stop-color="#1AD6FF"/>
<stop offset="1" stop-color="#496BE4" stop-opacity="0.6"/>
<stop offset="1" stop-color="#1F3CA3"/>
</linearGradient>
<linearGradient id="paint13_linear_232_460" x1="888.095" y1="835.358" x2="931.026" y2="845.536" gradientUnits="userSpaceOnUse">
<stop stop-color="#81FF6C"/>
<stop offset="1" stop-color="#31F3FF"/>
</linearGradient>
<linearGradient id="paint14_linear_232_460" x1="858.884" y1="1025" x2="903.797" y2="1029.17" gradientUnits="userSpaceOnUse">
<stop stop-color="#FF79C9"/>
<stop offset="1" stop-color="#1F3CA3"/>
</linearGradient>
<linearGradient id="paint15_linear_232_460" x1="885.614" y1="1019.93" x2="915.423" y2="1023.36" gradientUnits="userSpaceOnUse">
<stop stop-color="#52FF6E"/>
<stop offset="1" stop-color="#31FFFF"/>
</linearGradient>
<linearGradient id="paint16_linear_232_460" x1="856.104" y1="795.473" x2="879.305" y2="877.818" gradientUnits="userSpaceOnUse">
<stop offset="0.103809" stop-color="white"/>
<stop offset="0.436548" stop-color="#FFAACE" stop-opacity="0.8"/>
<stop offset="0.71875" stop-color="#6F97FF" stop-opacity="0.8"/>
</linearGradient>
<linearGradient id="paint17_linear_232_460" x1="832.768" y1="824.089" x2="851.217" y2="860.608" gradientUnits="userSpaceOnUse">
<stop stop-color="white"/>
<stop offset="0.591466" stop-color="#FF94D4"/>
<stop offset="1" stop-color="#C994FF"/>
</linearGradient>
<linearGradient id="paint18_linear_232_460" x1="876.859" y1="860.168" x2="946.73" y2="876.733" gradientUnits="userSpaceOnUse">
<stop stop-color="#81FF6C"/>
<stop offset="1" stop-color="#31F3FF"/>
</linearGradient>
<linearGradient id="paint19_linear_232_460" x1="906.001" y1="849.477" x2="906.001" y2="907.437" gradientUnits="userSpaceOnUse">
<stop stop-color="white"/>
<stop offset="1" stop-color="white" stop-opacity="0"/>
</linearGradient>
<linearGradient id="paint20_linear_232_460" x1="852.753" y1="876.732" x2="904.716" y2="829.814" gradientUnits="userSpaceOnUse">
<stop offset="0.149863" stop-color="white"/>
<stop offset="0.300261" stop-color="#8CFF31"/>
<stop offset="0.449118" stop-color="#45C3EB"/>
<stop offset="1" stop-color="#72E6FF"/>
</linearGradient>
<linearGradient id="paint21_linear_232_460" x1="928.67" y1="847.362" x2="1009.21" y2="903.796" gradientUnits="userSpaceOnUse">
<stop stop-color="#6CFFED"/>
<stop offset="1" stop-color="#197F9F"/>
</linearGradient>
<linearGradient id="paint22_linear_232_460" x1="728.561" y1="913.345" x2="812.686" y2="1001.43" gradientUnits="userSpaceOnUse">
<stop offset="0.464598" stop-color="white"/>
<stop offset="0.790313" stop-color="#6DF390"/>
<stop offset="1" stop-color="#21CAFF" stop-opacity="0.9"/>
</linearGradient>
<linearGradient id="paint23_linear_232_460" x1="956.775" y1="876.732" x2="907.286" y2="829.882" gradientUnits="userSpaceOnUse">
<stop offset="0.125" stop-color="white"/>
<stop offset="0.297772" stop-color="#8CFF31"/>
<stop offset="0.447917" stop-color="#5BF5FF"/>
</linearGradient>
<linearGradient id="paint24_linear_232_460" x1="966.098" y1="807.397" x2="973.252" y2="860.608" gradientUnits="userSpaceOnUse">
<stop stop-color="#DFF4FF"/>
<stop offset="0.994792" stop-color="#0E42C8"/>
</linearGradient>
<radialGradient id="paint25_radial_232_460" cx="0" cy="0" r="1" gradientUnits="userSpaceOnUse" gradientTransform="translate(906 805.333) rotate(90) scale(75.5522 173)">
<stop stop-color="#739AFF"/>
<stop offset="1" stop-color="#6978FF" stop-opacity="0"/>
</radialGradient>
<radialGradient id="paint26_radial_232_460" cx="0" cy="0" r="1" gradientUnits="userSpaceOnUse" gradientTransform="translate(906 805.333) rotate(90) scale(53.6655 122.884)">
<stop stop-color="#739AFF"/>
<stop offset="1" stop-color="#6978FF" stop-opacity="0"/>
</radialGradient>
<linearGradient id="paint27_linear_232_460" x1="951.021" y1="750.151" x2="860.977" y2="840.195" gradientUnits="userSpaceOnUse">
<stop stop-color="#6C7BFF"/>
<stop offset="1" stop-color="#31B5FF"/>
</linearGradient>
<linearGradient id="paint28_linear_232_460" x1="1086.46" y1="551.08" x2="1099.68" y2="733.812" gradientUnits="userSpaceOnUse">
<stop stop-color="#3D79ED"/>
<stop offset="0.265625" stop-color="#3458C1" stop-opacity="0.7"/>
<stop offset="0.618879" stop-color="#3753B8" stop-opacity="0.7"/>
<stop offset="0.895833" stop-color="#5BB0FF" stop-opacity="0.9"/>
<stop offset="1" stop-color="#5BB0FF" stop-opacity="0.6"/>
</linearGradient>
<linearGradient id="paint29_linear_232_460" x1="898.664" y1="797.897" x2="866.754" y2="727.127" gradientUnits="userSpaceOnUse">
<stop offset="0.046875" stop-color="white"/>
<stop offset="0.427083" stop-color="#DFF4FF"/>
<stop offset="0.994792" stop-color="#0E42C8"/>
</linearGradient>
<linearGradient id="paint30_linear_232_460" x1="997.681" y1="819.359" x2="891.486" y2="738.335" gradientUnits="userSpaceOnUse">
<stop offset="0.280479" stop-color="white"/>
<stop offset="0.469567" stop-color="#FF79DA"/>
<stop offset="0.692708" stop-color="#3D3AE3" stop-opacity="0.9"/>
</linearGradient>
<linearGradient id="paint31_linear_232_460" x1="997.681" y1="808.031" x2="892.702" y2="707.278" gradientUnits="userSpaceOnUse">
<stop offset="0.161458" stop-color="white"/>
<stop offset="1" stop-color="white" stop-opacity="0"/>
</linearGradient>
<linearGradient id="paint32_linear_232_460" x1="906.116" y1="541.839" x2="881.375" y2="582.379" gradientUnits="userSpaceOnUse">
<stop stop-color="#1AD6FF"/>
<stop offset="1" stop-color="#496BE4" stop-opacity="0.6"/>
<stop offset="1" stop-color="#1F3CA3"/>
</linearGradient>
<linearGradient id="paint33_linear_232_460" x1="923.905" y1="755.031" x2="880.974" y2="744.853" gradientUnits="userSpaceOnUse">
<stop stop-color="#81FF6C"/>
<stop offset="1" stop-color="#31F3FF"/>
</linearGradient>
<linearGradient id="paint34_linear_232_460" x1="953.116" y1="565.388" x2="908.203" y2="561.215" gradientUnits="userSpaceOnUse">
<stop stop-color="#FF79C9"/>
<stop offset="1" stop-color="#1F3CA3"/>
</linearGradient>
<linearGradient id="paint35_linear_232_460" x1="926.386" y1="570.456" x2="896.577" y2="567.033" gradientUnits="userSpaceOnUse">
<stop stop-color="#52FF6E"/>
<stop offset="1" stop-color="#31FFFF"/>
</linearGradient>
<linearGradient id="paint36_linear_232_460" x1="955.897" y1="794.915" x2="932.695" y2="712.57" gradientUnits="userSpaceOnUse">
<stop offset="0.103809" stop-color="white"/>
<stop offset="0.436548" stop-color="#FFAACE" stop-opacity="0.8"/>
<stop offset="0.71875" stop-color="#6F97FF" stop-opacity="0.8"/>
</linearGradient>
<linearGradient id="paint37_linear_232_460" x1="979.232" y1="766.299" x2="960.784" y2="729.781" gradientUnits="userSpaceOnUse">
<stop stop-color="white"/>
<stop offset="0.591466" stop-color="#FF94D4"/>
<stop offset="1" stop-color="#C994FF"/>
</linearGradient>
<linearGradient id="paint38_linear_232_460" x1="935.141" y1="730.221" x2="865.27" y2="713.656" gradientUnits="userSpaceOnUse">
<stop stop-color="#81FF6C"/>
<stop offset="1" stop-color="#31F3FF"/>
</linearGradient>
<linearGradient id="paint39_linear_232_460" x1="905.999" y1="740.912" x2="905.999" y2="682.951" gradientUnits="userSpaceOnUse">
<stop stop-color="white"/>
<stop offset="1" stop-color="white" stop-opacity="0"/>
</linearGradient>
<linearGradient id="paint40_linear_232_460" x1="959.247" y1="713.656" x2="907.284" y2="760.575" gradientUnits="userSpaceOnUse">
<stop offset="0.149863" stop-color="white"/>
<stop offset="0.300261" stop-color="#8CFF31"/>
<stop offset="0.449118" stop-color="#45C3EB"/>
<stop offset="1" stop-color="#72E6FF"/>
</linearGradient>
<linearGradient id="paint41_linear_232_460" x1="883.33" y1="743.027" x2="802.792" y2="686.593" gradientUnits="userSpaceOnUse">
<stop stop-color="#6CFFED"/>
<stop offset="1" stop-color="#197F9F"/>
</linearGradient>
<linearGradient id="paint42_linear_232_460" x1="1083.44" y1="677.044" x2="999.314" y2="588.961" gradientUnits="userSpaceOnUse">
<stop offset="0.464598" stop-color="white"/>
<stop offset="0.790313" stop-color="#6DF390"/>
<stop offset="1" stop-color="#21CAFF" stop-opacity="0.9"/>
</linearGradient>
<linearGradient id="paint43_linear_232_460" x1="855.225" y1="713.656" x2="904.714" y2="760.507" gradientUnits="userSpaceOnUse">
<stop offset="0.125" stop-color="white"/>
<stop offset="0.297772" stop-color="#8CFF31"/>
<stop offset="0.447917" stop-color="#5BF5FF"/>
</linearGradient>
<linearGradient id="paint44_linear_232_460" x1="845.902" y1="782.992" x2="838.748" y2="729.781" gradientUnits="userSpaceOnUse">
<stop stop-color="#DFF4FF"/>
<stop offset="0.994792" stop-color="#0E42C8"/>
</linearGradient>
</defs>
</svg>
